<?xml version="1.0" encoding="UTF-8"?>
<!DOCTYPE svg PUBLIC "-//W3C//DTD SVG 1.1//EN" "http://www.w3.org/Graphics/SVG/1.1/DTD/svg11.dtd">
<!-- Creator: CorelDRAW -->
<svg xmlns="http://www.w3.org/2000/svg" xml:space="preserve" width="6.82666in" height="6.82666in" style="shape-rendering:geometricPrecision; text-rendering:geometricPrecision; image-rendering:optimizeQuality; fill-rule:evenodd; clip-rule:evenodd"
viewBox="0 0 6.82666 6.82666"
 xmlns:xlink="http://www.w3.org/1999/xlink">
 <defs>
  <style type="text/css">
   <![CDATA[
    .fil2 {fill:none}
    .fil1 {fill:#26292C}
    .fil0 {fill:#263238}
    .fil7 {fill:#5D4037}
    .fil8 {fill:#795548}
    .fil4 {fill:#9ED3FF}
    .fil6 {fill:#9FCA7B}
    .fil3 {fill:#FFC107}
    .fil5 {fill:#FFE082}
    .fil9 {fill:white}
   ]]>
  </style>
   <clipPath id="id0">
    <path d="M3.41333 0c1.88513,0 3.41333,1.5282 3.41333,3.41333 0,1.88513 -1.5282,3.41333 -3.41333,3.41333 -1.88513,0 -3.41333,-1.5282 -3.41333,-3.41333 0,-1.88513 1.5282,-3.41333 3.41333,-3.41333z"/>
   </clipPath>
 </defs>
 <g id="Layer_x0020_1">
  <metadata id="CorelCorpID_0Corel-Layer"/>
  <path class="fil0" d="M3.41333 0c1.88513,0 3.41333,1.5282 3.41333,3.41333 0,1.88513 -1.5282,3.41333 -3.41333,3.41333 -1.88513,0 -3.41333,-1.5282 -3.41333,-3.41333 0,-1.88513 1.5282,-3.41333 3.41333,-3.41333z"/>
  <g style="clip-path:url(#id0)">
   <g id="_328327896">
    <g>
     <polygon id="_3305315841" class="fil1" points="5.24436,2.22564 9.03063,6.01191 9.03526,6.0178 9.03961,6.0239 9.04366,6.03021 9.04742,6.03672 9.05087,6.04343 9.05399,6.05031 9.05679,6.05737 9.05924,6.06459 9.06135,6.07196 9.06309,6.07947 9.06446,6.08711 9.06546,6.09487 9.06606,6.10274 9.06626,6.11072 9.06626,8.2885 9.06606,8.29647 9.06546,8.30434 9.06446,8.3121 9.06309,8.31974 9.06135,8.32725 9.05924,8.33462 9.05679,8.34184 9.05399,8.34889 9.05087,8.35578 9.04742,8.36248 9.04366,8.369 9.03961,8.37531 9.03526,8.38141 9.03063,8.3873 9.02573,8.39294 9.02057,8.39835 9.01516,8.40352 9.00951,8.40841 9.00363,8.41304 8.99753,8.41739 8.99122,8.42144 8.9847,8.4252 8.978,8.42865 8.97111,8.43177 8.96406,8.43457 8.95684,8.43702 8.94947,8.43913 8.94196,8.44087 8.93432,8.44225 8.92656,8.44324 8.91869,8.44384 8.91071,8.44405 5.48848,8.44405 5.48051,8.44384 5.47264,8.44324 5.46487,8.44225 5.45724,8.44087 5.44972,8.43913 5.44236,8.43702 5.43514,8.43457 5.42808,8.43177 5.4212,8.42865 5.41449,8.4252 5.40798,8.42144 5.40167,8.41739 5.39556,8.41304 5.38968,8.40841 1.60341,4.62214 1.6093,4.62677 1.6154,4.63112 1.62171,4.63517 1.62822,4.63893 1.63493,4.64238 1.64181,4.6455 1.64887,4.6483 1.65609,4.65075 1.66346,4.65286 1.67097,4.6546 1.67861,4.65598 1.68637,4.65697 1.69424,4.65757 1.70222,4.65778 5.12444,4.65778 5.13242,4.65757 5.14029,4.65697 5.14805,4.65598 5.15569,4.6546 5.1632,4.65286 5.17057,4.65075 5.17779,4.6483 5.18485,4.6455 5.19173,4.64238 5.19843,4.63893 5.20495,4.63517 5.21126,4.63112 5.21736,4.62677 5.22324,4.62214 5.22889,4.61724 5.23431,4.61208 5.23946,4.60667 5.24436,4.60102 5.24899,4.59514 5.25334,4.58904 5.25739,4.58273 5.26115,4.57621 5.2646,4.56951 5.26772,4.56262 5.27052,4.55557 5.27297,4.54835 5.27508,4.54098 5.27682,4.53347 5.2782,4.52583 5.27919,4.51807 5.27979,4.5102 5.28,4.50222 5.28,2.32444 5.27979,2.31647 5.27919,2.3086 5.2782,2.30083 5.27682,2.2932 5.27508,2.28569 5.27297,2.27832 5.27052,2.2711 5.26772,2.26404 5.2646,2.25716 5.26115,2.25045 5.25739,2.24394 5.25334,2.23763 5.24899,2.23152 "/>
    </g>
    <path id="_328328160" class="fil1" d="M1.70222 2.16889l3.42223 0c0.0855591,0 0.155551,0.07 0.155551,0.155559l0 2.17778c0,0.0855551 -0.0699921,0.155551 -0.155551,0.155551l-3.42223 0c-0.0855591,0 -0.155555,-0.0699961 -0.155555,-0.155551l0 -2.17778c0,-0.0855591 0.0699961,-0.155559 0.155555,-0.155559z"/>
   </g>
  </g>
  <path class="fil2" d="M3.41333 0c1.88513,0 3.41333,1.5282 3.41333,3.41333 0,1.88513 -1.5282,3.41333 -3.41333,3.41333 -1.88513,0 -3.41333,-1.5282 -3.41333,-3.41333 0,-1.88513 1.5282,-3.41333 3.41333,-3.41333z"/>
  <rect class="fil3" x="1.54666" y="2.16889" width="3.73333" height="2.48889" rx="0.155555" ry="0.155555"/>
  <rect class="fil4" x="1.70222" y="2.32444" width="3.42222" height="2.17778"/>
  <path class="fil5" d="M2.12172 2.56213c0.0644252,0 0.12276,0.0261181 0.164988,0.0683425 0.0422244,0.0422283 0.0683465,0.100563 0.0683465,0.164988 0,0.0644252 -0.026122,0.12276 -0.0683465,0.164988 -0.0422283,0.0422244 -0.100563,0.0683425 -0.164988,0.0683425 -0.0644252,0 -0.12276,-0.0261181 -0.164988,-0.0683425 -0.0422244,-0.0422283 -0.0683465,-0.100563 -0.0683465,-0.164988 0,-0.0644252 0.026122,-0.12276 0.0683465,-0.164988 0.0422283,-0.0422244 0.100563,-0.0683425 0.164988,-0.0683425z"/>
  <rect class="fil6" x="1.70222" y="3.87999" width="3.42222" height="0.622226"/>
  <path class="fil7" d="M5.13715 4.43235c-0.209402,-0.39263 -0.549677,-0.785252 -0.628205,-1.17788 -0.235575,0.39263 -0.314102,0.86378 -0.706728,1.17788l1.33493 0z"/>
  <path class="fil8" d="M4.58 4.43235c-0.256209,-0.480394 -0.672547,-0.960783 -0.768626,-1.44118 -0.288236,0.480394 -0.384315,1.05687 -0.864709,1.44118l1.63333 0z"/>
  <path class="fil7" d="M3.81137 2.99117c-0.288236,0.480394 -0.0869331,1.12216 -0.864709,1.44118l0.864709 -1.44118z"/>
  <path class="fil9" d="M3.21321 2.61066c-0.0307717,0 -0.0590591,0.0106457 -0.0813819,0.0284409 0.0020315,-0.00915354 0.00311024,-0.0186693 0.00311024,-0.0284409 0,-0.0721654 -0.0585,-0.130665 -0.130665,-0.130665 -0.0721654,0 -0.130669,0.0585 -0.130669,0.130665 0,0.00183071 4.72441e-005,0.00364961 0.000122047,0.00546063 -0.0118661,-0.00354331 -0.024437,-0.00546063 -0.0374567,-0.00546063 -0.0721654,0 -0.130665,0.0585039 -0.130665,0.130669 0,0.097689 0.0933346,0.123531 0.0933346,0.127551l0.44272 0c0.0595157,-0.0125276 0.102217,-0.0671772 0.102217,-0.127551 0,-0.0721654 -0.0585,-0.130669 -0.130665,-0.130669z"/>
  <path class="fil9" d="M4.63819 2.65515c-0.041248,0 -0.0791614,0.0142638 -0.109087,0.038122 0.00272441,-0.0122717 0.00417323,-0.0250276 0.00417323,-0.038122 0,-0.0967323 -0.0784173,-0.17515 -0.17515,-0.17515 -0.0967323,0 -0.17515,0.0784173 -0.17515,0.17515 0,0.00245276 6.29921e-005,0.00488976 0.000161417,0.00731496 -0.0159055,-0.00474803 -0.0327559,-0.00731496 -0.0502047,-0.00731496 -0.0967323,0 -0.175154,0.0784173 -0.175154,0.17515 0,0.130945 0.12511,0.165587 0.12511,0.170976l0.593433 0c0.0797756,-0.0167953 0.137016,-0.0900472 0.137016,-0.170976 0,-0.0967323 -0.0784173,-0.17515 -0.17515,-0.17515z"/>
 </g>
</svg>
